<?xml version="1.0" encoding="UTF-8" standalone="no"?>
<!-- Created with Inkscape (http://www.inkscape.org/) -->
<svg
   xmlns:dc="http://purl.org/dc/elements/1.1/"
   xmlns:cc="http://creativecommons.org/ns#"
   xmlns:rdf="http://www.w3.org/1999/02/22-rdf-syntax-ns#"
   xmlns:svg="http://www.w3.org/2000/svg"
   xmlns="http://www.w3.org/2000/svg"
   xmlns:sodipodi="http://sodipodi.sourceforge.net/DTD/sodipodi-0.dtd"
   xmlns:inkscape="http://www.inkscape.org/namespaces/inkscape"
   width="105.68262"
   height="62.09198"
   id="svg4483"
   sodipodi:version="0.32"
   inkscape:version="0.46"
   version="1.0"
   sodipodi:docname="200.svg"
   inkscape:output_extension="org.inkscape.output.svg.inkscape">
  <defs
     id="defs4485">
    <inkscape:perspective
       sodipodi:type="inkscape:persp3d"
       inkscape:vp_x="0 : 526.18109 : 1"
       inkscape:vp_y="0 : 1000 : 0"
       inkscape:vp_z="744.09448 : 526.18109 : 1"
       inkscape:persp3d-origin="372.04724 : 350.78739 : 1"
       id="perspective4491" />
    <inkscape:perspective
       id="perspective4500"
       inkscape:persp3d-origin="372.04724 : 350.78739 : 1"
       inkscape:vp_z="744.09448 : 526.18109 : 1"
       inkscape:vp_y="0 : 1000 : 0"
       inkscape:vp_x="0 : 526.18109 : 1"
       sodipodi:type="inkscape:persp3d" />
  </defs>
  <sodipodi:namedview
     id="base"
     pagecolor="#ffffff"
     bordercolor="#666666"
     borderopacity="1.0"
     inkscape:pageopacity="0.0"
     inkscape:pageshadow="2"
     inkscape:zoom="5.1096388"
     inkscape:cx="52.841309"
     inkscape:cy="31.04599"
     inkscape:document-units="px"
     inkscape:current-layer="layer1"
     showgrid="false"
     inkscape:window-width="641"
     inkscape:window-height="714"
     inkscape:window-x="-5"
     inkscape:window-y="25" />
  <metadata
     id="metadata4488">
    <rdf:RDF>
      <cc:Work
         rdf:about="">
        <dc:format>image/svg+xml</dc:format>
        <dc:type
           rdf:resource="http://purl.org/dc/dcmitype/StillImage" />
      </cc:Work>
    </rdf:RDF>
  </metadata>
  <g
     inkscape:label="Capa 1"
     inkscape:groupmode="layer"
     id="layer1"
     transform="translate(-292.87299,-107.03049)">
    <rect
       y="107.03049"
       x="292.87299"
       height="62.09198"
       width="105.68262"
       id="rect4481"
       style="fill:#ffffff;fill-opacity:1;stroke:none;stroke-width:2;stroke-miterlimit:4;stroke-dasharray:none;stroke-opacity:1" />
    <g
       id="g4474"
       transform="translate(68.174386,-178.23147)">
      <g
         transform="matrix(0.2820088,0,0,0.3005982,294.91275,53.526436)"
         id="g4470">
        <path
           id="path4384"
           d="M -181.6553,943.23569 C -188.86199,939.08318 -190.40186,938.9893 -198.34758,942.21793 C -208.17509,946.21121 -218.87518,945.37516 -223.10058,940.28387 C -223.81536,939.4226 -225.69509,938.71793 -227.27774,938.71793 L -230.1553,938.71793 L -230.1553,926.36797 C -230.1553,914.07918 -230.13955,913.99621 -226.97497,909.61797 C -224.11347,905.65904 -208.85901,887.02267 -194.31552,869.71793 C -187.20455,861.25686 -185.84742,857.89401 -186.35116,849.98291 C -186.90009,841.36211 -188.96384,839.30118 -197.09562,839.25313 C -200.44721,839.23332 -203.57762,839.74379 -204.25584,840.42074 C -204.91863,841.08228 -206.41338,846.03228 -207.57751,851.42074 L -209.69411,861.21793 L -219.17471,861.21793 L -228.6553,861.21793 L -228.41078,855.21793 C -228.27629,851.91793 -227.64622,843.25543 -227.01061,835.96793 L -225.85496,822.71793 L -202.75513,822.72693 L -179.6553,822.73592 L -172.39296,828.97693 C -161.42774,838.40005 -161.6553,837.85982 -161.6553,854.4682 C -161.6553,862.30586 -161.4303,868.71221 -161.1553,868.70455 C -160.8803,868.69689 -159.6428,868.41928 -158.4053,868.08764 C -156.23159,867.50511 -156.1553,867.08066 -156.1553,855.56918 C -156.1553,841.10795 -155.42555,839.11242 -147.32869,831.43233 C -138.48547,823.0443 -137.32346,822.71793 -116.30137,822.71793 L -98.383214,822.71793 L -92.402147,826.71193 C -89.112567,828.90863 -84.561287,832.72358 -82.288197,835.18959 L -78.155307,839.67324 L -78.155307,853.19559 C -78.155307,865.75731 -78.021927,866.71793 -76.277747,866.71793 C -72.990717,866.71793 -72.338727,864.49694 -71.993117,852.12242 L -71.655307,840.02692 L -67.907187,835.45642 C -65.845717,832.94264 -61.406937,829.04812 -58.043237,826.80193 L -51.927397,822.71793 L -33.291357,822.72305 C -12.283267,822.72883 -12.806027,822.57762 -2.1935675,831.71793 C 6.1428125,838.89789 5.8446925,837.3192 5.8446925,874.28485 L 5.8446925,906.95108 L 8.5946925,906.21772 C 10.107192,905.81437 14.299153,905.27824 17.910153,905.02632 C 26.849763,904.40265 27.239313,905.00794 24.810883,915.74872 C 22.310113,926.80943 22.342233,929.14036 25.019873,930.91825 C 28.380653,933.14973 26.693593,935.20969 20.341003,936.63134 C 14.277113,937.98838 13.211582,937.60424 12.679372,933.86917 L 12.344692,931.52041 L 8.4571925,934.61917 C 3.6842125,938.42375 0.64628247,938.55244 -2.0959875,935.06622 L -4.1818275,932.4145 L -9.4185674,935.31622 L -14.655307,938.21793 L -35.655307,938.37031 C -55.952417,938.51759 -56.865457,938.61135 -62.933827,941.17158 C -67.606647,943.14303 -70.539097,943.74342 -74.400107,943.5192 C -79.061237,943.24851 -79.824967,942.86518 -81.923527,939.74296 C -83.258637,937.75661 -84.049637,935.40051 -83.769997,934.24296 C -83.500937,933.1292 -82.952487,930.87567 -82.551217,929.23513 L -81.821627,926.25232 L -86.874937,930.48319 C -94.193717,936.61082 -99.359334,938.66983 -107.47898,938.69597 C -112.12421,938.71092 -116.75332,939.54349 -121.97898,941.30388 C -131.98622,944.67507 -137.3851,944.79012 -140.67199,941.70225 C -142.29078,940.18148 -143.1553,938.27943 -143.1553,936.23868 C -143.1553,933.74987 -144.26149,932.05958 -148.55108,927.99378 C -151.60769,925.09665 -154.45919,921.32716 -155.12864,919.29872 C -156.48459,915.19015 -157.81541,914.87613 -161.52044,917.79051 C -164.45892,920.10192 -164.92588,921.71793 -162.6553,921.71793 C -161.44125,921.71793 -161.1553,923.31608 -161.1553,930.1013 C -161.1553,937.64366 -161.35594,938.53713 -163.1553,939.00768 C -164.464,939.34991 -165.1553,940.37169 -165.1553,941.9638 C -165.1553,943.60067 -165.98882,944.77668 -167.70235,945.55741 C -171.87659,947.45932 -175.3194,946.88645 -181.6553,943.23569 z M -65.304527,933.6201 C -63.572457,933.0163 -62.155307,931.91682 -62.155307,931.17681 C -62.155307,929.912 -65.814007,926.71793 -67.262807,926.71793 C -68.546137,926.71793 -71.300557,931.89703 -70.762677,933.29872 C -70.107527,935.00603 -69.399747,935.0477 -65.304527,933.6201 z M 9.8133725,925.76192 C 12.808142,921.55614 16.058893,913.87354 15.337573,912.7064 C 14.403053,911.19433 10.244922,911.53075 8.8324125,913.23272 C 8.1409725,914.06586 6.9914825,917.25881 6.2779825,920.32817 C 4.3270125,928.72097 5.9405125,931.20085 9.8133725,925.76192 z M -108.69499,921.16974 C -104.34996,919.10789 -103.1553,916.08897 -103.1553,907.17088 C -103.1553,901.45918 -103.48148,899.71793 -104.55142,899.71793 C -105.96861,899.71793 -120.05875,914.11475 -122.92941,918.49594 C -124.27248,920.54571 -124.29352,921.0175 -123.07623,921.78796 C -120.80573,923.22502 -112.25121,922.85728 -108.69499,921.16974 z M -24.574327,921.11248 C -22.101227,919.93892 -20.922607,918.53468 -20.193087,915.89258 C -19.644187,913.90464 -19.571797,911.90144 -20.032217,911.44102 C -21.061897,910.41134 -32.371057,920.55982 -31.594377,921.81652 C -30.767167,923.15497 -28.372447,922.9148 -24.574327,921.11248 z M -184.4704,920.66129 C -179.85421,918.92861 -163.70224,908.86092 -159.791,905.27836 L -156.1553,901.94819 L -156.1553,890.69538 L -156.1553,879.44257 L -161.65756,880.08925 C -170.41394,881.11839 -174.76304,883.37128 -179.70501,889.43807 C -182.15267,892.44283 -184.1553,895.37118 -184.1553,895.94552 C -184.1553,896.63118 -182.52416,896.72908 -179.4053,896.23061 C -171.04043,894.8937 -170.03616,895.05086 -167.78296,898.04943 L -165.6553,900.88092 L -168.40695,903.25288 C -172.10686,906.44225 -177.15298,907.70567 -186.21821,907.71235 C -193.17846,907.71749 -193.98492,907.93707 -196.33876,910.46793 C -204.20452,918.92528 -203.52415,921.71793 -193.59795,921.71793 C -190.1261,921.71793 -186.0187,921.24244 -184.4704,920.66129 z M -72.155307,908.20215 C -72.155307,903.06902 -73.136347,902.60707 -76.082727,906.35279 C -77.579027,908.25502 -78.147157,910.40992 -78.125997,914.10279 L -78.096677,919.21793 L -75.125997,915.95215 C -72.758917,913.34994 -72.155307,911.77524 -72.155307,908.20215 z M -37.544907,914.46793 C -34.251327,911.35317 -32.784417,909.02937 -32.053217,905.7683 C -31.377997,902.75689 -29.661047,899.82786 -26.741237,896.70634 C -21.516117,891.12027 -20.592117,889.45274 -19.683907,883.97013 C -19.130417,880.6288 -19.306067,879.59731 -20.507047,879.13645 C -22.686697,878.30004 -23.719597,879.06779 -35.542107,890.31189 L -46.155307,900.40584 L -46.155307,907.62763 C -46.155307,914.76227 -45.051967,918.71793 -43.061917,918.71793 C -42.499247,918.71793 -40.016597,916.80543 -37.544907,914.46793 z M -115.85589,895.882 L -103.1553,883.04606 L -103.1553,864.83234 C -103.1553,840.22432 -103.96353,838.71793 -117.16648,838.71793 C -123.69382,838.71793 -124.55584,838.96462 -127.17272,841.5815 L -130.03629,844.44507 L -129.99144,876.5815 C -129.96677,894.25654 -129.63381,908.71793 -129.25154,908.71793 C -128.86926,908.71793 -122.84122,902.94176 -115.85589,895.882 z M -35.273707,877.93933 C -30.663827,874.43073 -25.362307,870.83055 -23.492547,869.93892 C -21.496887,868.98726 -19.845077,867.33007 -19.492687,865.92603 C -18.759287,863.00393 -19.650377,845.90591 -20.665047,843.43095 C -21.895937,840.42859 -26.620857,838.71793 -33.682567,838.71793 C -39.673357,838.71793 -40.589617,838.99839 -43.232227,841.64101 L -46.155307,844.56408 L -46.155307,865.20002 C -46.155307,881.44674 -45.889437,885.67459 -44.905307,885.07729 C -44.217807,884.66001 -39.883587,881.44793 -35.273707,877.93933 z M 66.865253,937.53615 C 65.501563,937.02821 63.663313,935.95877 62.780253,935.15961 C 61.380113,933.89251 60.801723,933.89103 58.259693,935.14811 C 56.656443,935.94093 53.605913,936.73098 51.480743,936.90377 C 45.539753,937.3868 45.066383,935.75208 47.827703,924.28848 C 49.476923,917.44173 49.843823,914.31706 49.087353,913.56059 C 47.419573,911.89281 42.112373,920.02618 39.712233,927.92811 C 37.559843,935.01439 35.950883,936.71793 31.410433,936.71793 C 28.324333,936.71793 28.314103,936.51681 30.823053,925.16727 C 33.387113,913.56845 33.390743,911.09399 30.844693,910.42818 C 29.676253,910.12263 28.844693,909.06417 28.844693,907.88245 C 28.844693,906.23304 29.871033,905.64666 34.405723,904.70526 C 41.124363,903.31048 42.844693,903.83394 42.844693,907.27306 L 42.844693,909.89095 L 47.041693,906.80444 C 51.687463,903.38791 54.896133,902.91223 57.271763,905.28786 C 60.015903,908.03199 60.183453,911.66331 57.977223,920.57668 C 55.973903,928.67025 55.946053,929.29739 57.537773,930.47168 C 59.974233,932.26917 60.584483,931.06592 61.029663,923.58651 C 61.323903,918.64309 62.050593,916.02988 63.884533,913.32029 C 69.403303,905.16646 79.687113,901.42552 85.017913,905.63259 C 86.488183,906.79293 87.981183,909.06289 88.335693,910.67694 L 88.980243,913.61158 L 93.162473,909.25359 C 97.843313,904.37602 102.71319,902.83577 108.73476,904.32837 C 113.0044,905.38672 113.8061,907.75653 110.88327,910.67937 C 109.25307,912.30956 108.38237,912.54086 106.88752,911.74085 C 104.32069,910.36712 100.13183,910.44432 99.243463,911.88172 C 98.824453,912.5597 99.739053,914.0549 101.43445,915.46356 C 108.87122,921.64258 109.8447,922.88159 109.8447,926.16784 C 109.8447,932.56438 103.36775,937.71793 95.328613,937.71793 C 87.404083,937.71793 84.726263,934.83636 88.833743,930.72888 C 90.724593,928.83803 90.991613,928.82035 94.242843,930.37075 C 100.92951,933.5594 103.65923,928.62053 97.361443,924.72828 C 95.445653,923.54426 92.750643,921.14506 91.372533,919.39672 C 88.875503,916.22888 88.866753,916.22654 88.833823,918.71793 C 88.783393,922.53258 85.482193,928.84405 81.613893,932.52153 C 77.431153,936.49795 70.450293,938.87148 66.865253,937.53615 z M 76.799573,927.55173 C 82.110493,918.81862 79.389103,905.82144 73.641283,912.46793 C 70.576613,916.01176 68.445283,927.98518 70.511363,930.05126 C 72.100153,931.64006 75.018853,930.47989 76.799573,927.55173 z M 47.463523,899.63274 C 45.366653,897.98335 44.007623,897.68356 40.960813,898.19831 C 35.690973,899.08864 34.737743,896.67103 38.769123,892.63966 C 42.253873,889.15491 44.623063,888.96916 48.335823,891.88961 C 50.592193,893.66448 51.579883,893.8789 53.741173,893.06311 C 57.136323,891.78158 58.844693,892.37863 58.844693,894.84672 C 58.844693,897.35682 54.516283,901.71793 52.025003,901.71793 C 50.974183,901.71793 48.921513,900.7796 47.463523,899.63274 z"
           style="fill:#c39b6f;fill-opacity:1" />
        <path
           id="path4368"
           d="M -178.20694,943.62795 C -180.39879,942.45765 -183.07976,940.88265 -184.16464,940.12795 C -187.1123,938.07738 -192.0517,938.46084 -198.69213,941.25576 C -208.27487,945.28908 -218.79011,944.17823 -221.65229,938.8302 C -222.55266,937.14785 -221.76764,936.42696 -214.93193,932.65879 C -208.42452,929.0716 -205.99792,928.29423 -199.69213,927.77664 C -193.05483,927.23185 -191.09938,926.54812 -182.69213,921.83253 C -169.21004,914.27047 -160.60951,908.57633 -157.54731,905.18492 C -143.75758,889.91268 -141.13417,886.0891 -142.18147,882.78936 C -143.02008,880.14712 -147.8418,878.75576 -156.15985,878.75576 C -167.06462,878.75576 -181.80016,884.28279 -186.00074,889.94852 C -187.89167,892.499 -187.90863,892.7764 -186.32159,895.19852 C -184.48032,898.00865 -180.07783,898.58716 -173.93679,896.82593 C -171.44808,896.11217 -170.34578,896.24497 -169.19339,897.39736 C -164.55861,902.03214 -170.77835,905.77463 -184.3503,906.51743 C -194.93643,907.09682 -197.85929,906.56609 -200.66445,903.55509 C -203.09395,900.94734 -203.40793,894.02658 -201.28141,889.9561 C -196.84041,881.45536 -179.01454,872.14664 -162.23411,869.56549 C -148.87859,867.51116 -140.15888,867.44044 -136.12688,869.35375 C -129.56161,872.46917 -128.02003,881.21536 -132.38418,890.5881 C -134.97426,896.15074 -146.17226,906.82069 -156.21395,913.29419 C -168.49884,921.21378 -175.69213,927.54812 -175.69213,930.44649 C -175.69213,933.04511 -173.50447,935.44675 -168.84874,937.95925 C -164.90235,940.08895 -164.61558,943.39596 -168.25723,944.78051 C -172.00359,946.20487 -173.76212,946.00117 -178.20694,943.62795 z M -139.51782,940.44131 C -142.78834,936.96 -142.42459,930.90994 -138.50232,923.55101 C -135.21823,917.38943 -124.14888,905.46674 -105.17746,887.65713 C -93.057028,876.27896 -85.673298,871.24433 -76.353058,868.00307 C -70.274548,865.88917 -68.793198,865.70851 -65.537198,866.68403 C -60.542128,868.18059 -58.692128,871.04486 -58.692128,877.28192 C -58.692128,886.09165 -62.216378,891.42683 -79.099578,908.17565 C -93.130128,922.09453 -105.95727,932.77303 -113.05535,936.44359 C -118.46454,939.24079 -129.95673,942.75576 -133.69297,942.75576 C -136.21586,942.75576 -138.01514,942.04083 -139.51782,940.44131 z M -121.40229,932.61501 C -115.6156,929.67263 -107.46953,924.00253 -99.470468,917.34928 C -93.589108,912.45744 -92.546618,911.06303 -91.131518,906.19525 C -89.970278,902.20076 -88.004448,898.93995 -84.160178,894.63159 C -78.080848,887.81837 -75.963848,882.98508 -77.665918,879.80473 C -78.269038,878.6778 -79.396658,877.75576 -80.171748,877.75576 C -81.908018,877.75576 -101.89237,895.18442 -113.65106,906.95357 C -120.0811,913.38934 -123.42705,917.7323 -126.51663,923.65276 C -128.81316,928.05352 -130.69213,932.352 -130.69213,933.20495 C -130.69213,935.43956 -126.42423,935.16853 -121.40229,932.61501 z M -79.517818,940.44131 C -83.610988,936.08432 -81.851628,929.03821 -73.661058,916.98544 C -67.738358,908.26995 -53.474298,893.18379 -46.692128,888.46219 C -44.217128,886.73915 -39.492128,883.1531 -36.192128,880.49318 C -29.548068,875.13785 -16.360468,867.21259 -12.467378,866.23549 C -8.8681278,865.33213 -2.0263578,867.4405 -0.22873781,870.00695 C 2.2500922,873.54599 1.7286622,881.51866 -1.3910978,887.7792 C -6.6723178,898.37723 -44.132018,932.98321 -54.192128,936.5578 C -55.842128,937.14408 -59.892128,938.76778 -63.192128,940.16603 C -70.954618,943.45507 -76.597148,943.55022 -79.517818,940.44131 z M -54.846318,928.8001 C -50.086518,925.47244 -43.836838,921.13717 -40.958148,919.16618 C -34.037818,914.42793 -31.113608,910.79302 -30.342438,905.97039 C -29.878488,903.06902 -28.349078,900.55256 -24.664368,896.62785 C -18.485878,890.04693 -15.783788,882.79101 -18.160658,879.16344 C -19.222298,877.54318 -20.243538,877.0872 -21.862508,877.51057 C -24.935068,878.31406 -59.757078,913.31527 -64.417418,920.28448 C -70.890708,929.96482 -72.068148,932.33349 -71.344378,934.2196 C -70.150468,937.33088 -64.299188,935.40878 -54.846318,928.8001 z M 0.70757219,935.99045 C -1.4845978,934.52669 -2.6921278,930.77737 -2.6921278,925.43452 C -2.6921278,917.52403 1.7366022,911.10523 9.3078722,908.04225 C 15.814112,905.41013 24.079022,904.9958 24.947202,907.25824 C 25.264302,908.08461 24.800182,911.96481 23.915812,915.88091 C 21.646012,925.93192 21.786262,930.40623 24.415232,931.81322 C 27.391632,933.40614 25.631792,934.69319 19.481292,935.42163 L 14.307872,936.03434 L 14.307872,932.29146 L 14.307872,928.54858 L 10.696782,931.71916 C 8.7106822,933.46297 5.9813822,935.30959 4.6316822,935.82275 C 1.7407722,936.92187 2.0807522,936.90734 0.70757219,935.99045 z M 10.468982,926.96053 C 13.776572,923.0076 17.692842,914.20136 16.975042,912.33081 C 16.093962,910.03473 10.773922,910.33914 8.4647322,912.81776 C 6.3403622,915.09801 3.9026422,925.53617 4.8922322,928.115 C 5.8203922,930.53375 7.8266222,930.11843 10.468982,926.96053 z M 64.774652,934.31345 C 62.281282,931.82008 62.117222,931.13558 62.478882,924.73507 C 62.798092,919.08584 63.406692,917.06725 65.851502,913.54886 C 68.934702,909.11174 75.925832,904.75576 79.964002,904.75576 C 84.142902,904.75576 87.512532,908.8303 88.061902,914.54773 C 89.048732,924.81788 81.216732,935.15353 71.455392,936.4628 C 68.061052,936.91808 67.055892,936.59469 64.774652,934.31345 z M 75.458632,931.67508 C 78.425992,930.08699 81.260712,923.01055 81.285912,917.1282 C 81.310232,911.45072 79.837412,909.40101 76.112912,909.929 C 71.219802,910.62265 67.241822,925.02679 70.343052,930.8215 C 71.524292,933.02866 72.595472,933.20739 75.458632,931.67508 z M 89.749002,935.31688 C 87.928292,933.96726 87.912362,933.77193 89.492132,932.16833 C 90.944942,930.69361 91.595042,930.63207 94.222722,931.72049 C 97.817762,933.2096 101.82763,932.44963 102.72584,930.10893 C 103.44053,928.24648 100.41476,924.53332 96.100252,921.97814 C 87.007342,916.59307 93.252402,905.54363 105.50652,905.33554 C 111.15273,905.23967 113.53666,906.95554 111.11782,909.37438 C 109.76708,910.72512 108.95173,910.79333 105.95964,909.80585 C 103.30571,908.92997 101.8716,908.91888 100.29615,909.76203 C 97.081672,911.48237 98.216892,914.68564 103.30787,918.26024 C 108.76065,922.08888 110.15155,925.30471 108.29418,929.78882 C 105.96828,935.40404 94.484572,938.82717 89.749002,935.31688 z M 31.093522,935.20807 C 30.792292,934.90685 31.380742,930.96935 32.401182,926.45807 C 34.938382,915.24135 34.910402,910.14659 32.307872,909.46601 C 31.207872,909.17836 30.307872,908.5105 30.307872,907.98189 C 30.307872,906.92396 40.334432,904.65414 41.587282,905.42845 C 42.017362,905.69425 42.080352,907.45163 41.727262,909.33374 C 40.956472,913.44243 42.097712,913.68999 45.383562,910.12688 C 48.718592,906.51044 53.824582,904.42674 56.215682,905.70642 C 59.285482,907.34933 59.524342,911.27651 57.144642,920.97983 L 54.912532,930.08131 L 57.110202,931.54051 C 58.318922,932.34307 59.307872,933.35259 59.307872,933.78389 C 59.307872,935.00458 49.257132,936.10502 48.156902,935.00479 C 47.537822,934.38571 47.929242,931.15532 49.250232,925.98151 C 52.227862,914.3193 51.893692,910.82626 47.945332,912.34139 C 45.674312,913.21286 40.793852,921.44907 38.811362,927.75576 C 36.774402,934.23573 33.389562,937.50412 31.093522,935.20807 z M 46.941722,897.55607 C 44.604612,895.81406 43.730362,895.63533 42.205292,896.58775 C 38.274542,899.04254 36.657562,896.55925 40.136612,893.41075 C 42.627322,891.15669 45.905222,891.33286 49.532532,893.91573 C 51.995142,895.66926 52.915422,895.85743 54.423332,894.91573 C 58.342942,892.46789 59.950812,894.95895 56.479132,898.10077 C 54.005312,900.33955 50.399832,900.13363 46.941722,897.55607 z"
           style="fill:#000000" />
      </g>
    </g>
  </g>
</svg>
